<svg width="12" height="22" viewBox="0 0 12 22" fill="none" xmlns="http://www.w3.org/2000/svg">
<path d="M11.7074 11.7075L1.70745 21.7075C1.61454 21.8004 1.50424 21.8741 1.38284 21.9244C1.26145 21.9747 1.13134 22.0006 0.999946 22.0006C0.868551 22.0006 0.738442 21.9747 0.617049 21.9244C0.495656 21.8741 0.385355 21.8004 0.292445 21.7075C0.199535 21.6146 0.125835 21.5043 0.075552 21.3829C0.0252693 21.2615 -0.000610352 21.1314 -0.000610352 21C-0.000610352 20.8686 0.0252693 20.7385 0.075552 20.6171C0.125835 20.4957 0.199535 20.3854 0.292445 20.2925L9.5862 11L0.292445 1.70751C0.104805 1.51987 -0.000610354 1.26537 -0.000610352 1.00001C-0.00061035 0.734643 0.104805 0.480147 0.292445 0.292507C0.480086 0.104866 0.734582 -0.000549314 0.999946 -0.000549316C1.26531 -0.000549318 1.51981 0.104866 1.70745 0.292507L11.7074 10.2925C11.8004 10.3854 11.8742 10.4957 11.9245 10.6171C11.9748 10.7385 12.0007 10.8686 12.0007 11C12.0007 11.1314 11.9748 11.2615 11.9245 11.3829C11.8742 11.5043 11.8004 11.6146 11.7074 11.7075Z" fill="#979090"/>
</svg>
